<!-- https://s.id/iconsvg -->
<!-- created by https://github.com/AbidAlWassie -->
<svg width="300px" height="300px" class="logo" xmlns="http://www.w3.org/2000/svg" xmlns:xlink="http://www.w3.org/1999/xlink" viewBox="100 100 120 100">
<style>
.splash-screen-container {display: flex; width: 100%; height: 100%; align-items: center; justify-content: center; position: absolute;}.arc.yellow {stroke-dasharray: 84 84; stroke-dashoffset: 84; animation: draw-yellow 4134ms cubic-bezier(0.60, 0.00, 0.80, 1.00) 0s both infinite;}.arc.green {stroke-dasharray: 40 40; stroke-dashoffset: 40; animation: draw-green 4134ms cubic-bezier( 0.70, 0.00, 0.70, 1.00) 0s both infinite;}.arc.blue {stroke-dasharray: 111 111; stroke-dashoffset: 111; animation: draw-blue 4134ms cubic-bezier(0.10, 0.00, 0.30, 1.00) 0s both infinite;}.arc.red {stroke-dasharray: 71 71; stroke-dashoffset: 71; animation: draw-red 4134ms cubic-bezier(0.00, 0.00, 0.20, 1.00) 0s both infinite;}@keyframes draw-yellow {0% {stroke-dashoffset: 84;}11.29%, 65.33% {stroke-dashoffset: 0;}76.62%, 100% {stroke-dashoffset: -84;}}@keyframes draw-green {0%, 10.48% {stroke-dashoffset: 40;}12.1%, 75.81% {stroke-dashoffset: 0;}77.43%, 100% {stroke-dashoffset: -40;}}@keyframes draw-blue {0%, 11.29% {stroke-dashoffset: 111;}16.13%, 76.62% {stroke-dashoffset: 0;}81.46%, 100% {stroke-dashoffset: -111;}}@keyframes draw-red {0%, 15.32% {stroke-dashoffset: 71;}29.03%, 80.65% {stroke-dashoffset: 0;}100% {stroke-dashoffset: -71;}}
</style>

<clipPath id="top"><path d="M173.874375,130.551875 L177.1875,130.61375 L186.193125,121.608125 L186.631875,117.794375 C179.476875,111.426875 170.060625,107.55125 159.75,107.55125 C141.080625,107.55125 125.33625,120.246875 120.6675,137.459375 C121.651875,136.77875 123.75,137.285 123.75,137.285 L141.75,134.32625 C141.75,134.32625 142.68375,132.79625 143.139375,132.891875 C147.256875,128.38625 153.18,125.55125 159.75,125.55125 C165.09375,125.55125 170.01,127.43 173.874375,130.551875 Z"></path></clipPath><clipPath id="right"><path d="M198.84375,137.481875 C196.756875,129.764375 192.436875,122.958125 186.62625,117.78875 L173.86875,130.54625 C178.97625,134.675 182.25,140.98625 182.25,148.05125 L182.25,150.30125 C188.454375,150.30125 193.5,155.346875 193.5,161.55125 C193.5,167.755625 188.454375,172.80125 182.25,172.80125 L159.75,172.80125 L157.5,175.0625 L157.5,188.5625 L159.75,190.80125 L182.25,190.80125 C198.376875,190.80125 211.5,177.678125 211.5,161.55125 C211.5,151.578125 206.4825,142.76375 198.84375,137.481875 Z"></path></clipPath><clipPath id="bottom"><path d="M137.25,190.80125 L159.733125,190.80125 L159.733125,172.80125 L137.25,172.80125 C135.59625,172.80125 134.0325,172.435625 132.615,171.78875 L129.375,172.784375 L120.36375,181.795625 L119.57625,184.83875 C124.486875,188.57375 130.6125,190.80125 137.25,190.80125 Z"></path></clipPath><clipPath id="left"><path d="M137.25,132.30125 C121.123125,132.30125 108,145.424375 108,161.55125 C108,171.04625 112.550625,179.500625 119.5875,184.844375 L132.631875,171.8 C128.728125,170.03375 126,166.1075 126,161.55125 C126,155.346875 131.045625,150.30125 137.25,150.30125 C141.80625,150.30125 145.7325,153.029375 147.49875,156.933125 L160.543125,143.88875 C155.199375,136.851875 146.745,132.30125 137.25,132.30125 Z"></path></clipPath><path class="arc red" clip-path="url(#top)" stroke="#EA4335" fill="none" stroke-miterlimit="10" stroke-width="25" d="M182.503 126.427 171.582 117.789 160.543 115.631 150.592 117.789 142.254 121.029 136.692 126.427 127.749 143.47"></path><path class="arc blue" clip-path="url(#right)" fill="none" stroke-miterlimit="10" stroke="#4285F4" stroke-width="25" d="M157.5 182.289 165.428 182.289 174.35 182.289 184.5 182.289 192.797 181.295 197.946 176.642 200.947 168.002 200.947 162.383 200.947 154.295 197.946 147.729 192.797 143.47 189.375 140 186.632 132.301 182.503 126.427 179.224 122.505 174.35 117.789"></path><path class="arc green" clip-path="url(#bottom)" fill="none" stroke-miterlimit="10" stroke="#34A853" stroke-width="25" d="M123.517 176.642 130.378 181.295 139.655 182.289 146.694 182.289 153.65 182.289 157.5 182.289 161.576 182.289"></path><path class="arc yellow" clip-path="url(#left)" fill="none" stroke-miterlimit="10" stroke="#FBBC05" stroke-width="25" d="M157.5 151.996 148.942 145.994 142.846 143.47 136.449 143.47 127.749 143.47 123.517 147.733 119.576 154.295 116.282 162.85 119.576 171.789 123.517 176.642 127.749 181.295 134.272 181.295"></path></svg>