<svg xmlns="http://www.w3.org/2000/svg" width="300" height="300" viewBox="-52.5 0 361 361"><defs><linearGradient id="shieldGradient" x1="0%" x2="100%" y1="0%" y2="100%"><stop offset="0%" stop-color="#FF4500"><animate attributeName="stop-color" dur="5s" repeatCount="indefinite" values="#FF4500;#FF7800;#FF4500"/></stop><stop offset="100%" stop-color="#B71C1C"><animate attributeName="stop-color" dur="5s" repeatCount="indefinite" values="#B71C1C;#E62E00;#B71C1C"/></stop></linearGradient><linearGradient id="frontShieldGradient" x1="0%" x2="100%" y1="0%" y2="100%"><stop offset="0%" stop-color="#FF8A00"><animate attributeName="stop-color" dur="4s" repeatCount="indefinite" values="#FF8A00;#FFA500;#FF8A00"/></stop><stop offset="100%" stop-color="#FF5722"><animate attributeName="stop-color" dur="4s" repeatCount="indefinite" values="#FF5722;#FF8046;#FF5722"/></stop></linearGradient><linearGradient id="metallicEdge" x1="0%" x2="100%" y1="0%" y2="0%"><stop offset="0%" stop-color="#333" stop-opacity=".1"/><stop offset="20%" stop-color="#FFF" stop-opacity=".6"/><stop offset="40%" stop-color="#333" stop-opacity=".1"/><stop offset="100%" stop-color="#333" stop-opacity=".3"/></linearGradient><linearGradient id="textGradient" x1="0%" x2="100%" y1="0%" y2="100%"><stop offset="0%" stop-color="#444"/><stop offset="50%" stop-color="#000"/><stop offset="100%" stop-color="#444"/></linearGradient><filter id="advancedGlow" width="160%" height="160%" x="-30%" y="-30%"><feGaussianBlur result="blur" stdDeviation="6"/><feFlood flood-color="#FF8A00" flood-opacity=".6" result="glowColor"/><feComposite in="glowColor" in2="blur" operator="in" result="softGlow"/><feComposite in="softGlow" in2="SourceGraphic" operator="over"/></filter><filter id="energyGlow" width="140%" height="140%" x="-20%" y="-20%"><feGaussianBlur result="blur" stdDeviation="10"/><feFlood flood-color="#FFC107" flood-opacity=".7" result="glowColor"/><feComposite in="glowColor" in2="blur" operator="in" result="softGlow"/><feComposite in="softGlow" in2="SourceGraphic" operator="over"/></filter><filter id="innerShadow" width="120%" height="120%" x="-10%" y="-10%"><feOffset dx="2" dy="2"/><feGaussianBlur result="offset-blur" stdDeviation="3"/><feComposite in="SourceGraphic" in2="offset-blur" operator="out" result="inverse"/><feFlood flood-color="#000" flood-opacity=".4" result="color"/><feComposite in="color" in2="inverse" operator="in" result="shadow"/><feComposite in="shadow" in2="SourceGraphic" operator="over"/></filter><pattern id="techPattern" width="30" height="30" patternTransform="scale(0.5)" patternUnits="userSpaceOnUse"><rect width="30" height="30" fill="none"/><path stroke="#FFF" stroke-width=".5" d="M0,15 L30,15 M15,0 L15,30" opacity=".2"><animate attributeName="stroke-opacity" dur="5s" repeatCount="indefinite" values="0.2;0.5;0.2"/></path><path stroke="#FFF" stroke-width=".5" d="M0,0 L30,30 M0,30 L30,0" opacity=".1"><animate attributeName="stroke-opacity" dur="4s" repeatCount="indefinite" values="0.1;0.3;0.1"/></path></pattern><radialGradient id="energyCore" cx="50%" cy="50%" r="50%" fx="50%" fy="50%"><stop offset="0%" stop-color="gold" stop-opacity=".8"><animate attributeName="stop-opacity" dur="3s" repeatCount="indefinite" values="0.8;1;0.8"/></stop><stop offset="100%" stop-color="#FF8A00" stop-opacity="0"/></radialGradient><style type="text/css">@keyframes float{0%{transform:translateY(0)}50%{transform:translateY(-10px)}}@keyframes pulse{0%{transform:scale(1);opacity:.9}50%{transform:scale(1.05);opacity:1}}@keyframes glowPulse{0%{filter:url(#advancedGlow) brightness(1)}50%{filter:url(#advancedGlow) brightness(1.3)}}@keyframes rotate{0%{transform:rotate(0deg)}}@keyframes dash{0%{stroke-dashoffset:1000}}@keyframes flashFill{0%{fill-opacity:.1}50%{fill-opacity:.3}}@keyframes particleFloat{0%{transform:translate(0,0);opacity:0}20%{opacity:.8}}.shield-base{animation:pulse 5s ease-in-out infinite}.glowing{animation:glowPulse 4s ease-in-out infinite}.floating{animation:float 6s ease-in-out infinite}.rotating,.rotating-reverse{transform-origin:center;animation:rotate 20s linear infinite}.rotating-reverse{animation:rotate 30s linear infinite reverse}.flash{animation:flashFill 2s ease-in-out infinite}.particle{animation:particleFloat 5s linear infinite}.tracing{stroke-dasharray:1000;stroke-dashoffset:1000;animation:dash 5s linear infinite alternate}</style><mask id="shieldMask"><path fill="#fff" d="M255.554813,70.7657143 L232.31367,331.125451 L127.843868,360.087912 L23.6617143,331.166242 L0.445186813,70.7657143 L255.554813,70.7657143 Z"/></mask><clipPath id="htmlTextClip"><g><path d="M24.1807473,0 L40.4107253,0 L40.4107253,16.0351648 L55.2573187,16.0351648 L55.2573187,0 L71.488,0 L71.488,48.5584176 L55.258022,48.5584176 L55.258022,32.2981978 L40.4114286,32.2981978 L40.4114286,48.5584176 L24.1814505,48.5584176 L24.1814505,0 L24.1807473,0 Z"/><path d="M92.8309451,16.1026813 L78.5427692,16.1026813 L78.5427692,0 L123.356835,0 L123.356835,16.1026813 L109.06233,16.1026813 L109.06233,48.5584176 L92.8316484,48.5584176 L92.8316484,16.1026813 L92.8309451,16.1026813 Z"/><path d="M130.469275,0 L147.392703,0 L157.802901,17.061978 L168.202549,0 L185.132308,0 L185.132308,48.5584176 L168.969143,48.5584176 L168.969143,24.4901978 L157.802901,41.7554286 L157.523692,41.7554286 L146.349714,24.4901978 L146.349714,48.5584176 L130.469275,48.5584176 L130.469275,0 Z"/><path d="M193.20967,0 L209.444571,0 L209.444571,32.5077802 L232.268659,32.5077802 L232.268659,48.5584176 L193.20967,48.5584176 L193.20967,0 Z"/></g></clipPath></defs><g class="background-elements" mask="url(#shieldMask)"><rect width="361" height="290" x="-52.5" y="70" fill="url(#techPattern)"/><circle cx="127" cy="220" r="80" fill="url(#energyCore)" class="pulse" filter="url(#energyGlow)"/></g><g class="shield-base"><path fill="url(#shieldGradient)" d="M255.554813,70.7657143 L232.31367,331.125451 L127.843868,360.087912 L23.6617143,331.166242 L0.445186813,70.7657143 L255.554813,70.7657143 Z" class="glowing"/><path fill="url(#frontShieldGradient)" d="M128,337.950242 L212.416703,314.546637 L232.277802,92.0573187 L128,92.0573187 L128,337.950242 Z"/></g><g class="floating" filter="url(#innerShadow)"><path fill="#EBEBEB" d="M82.8202198,155.932132 L128,155.932132 L128,123.994725 L47.917011,123.994725 L48.6814945,132.562989 L56.530989,220.572835 L128,220.572835 L128,188.636132 L85.7389011,188.636132 L82.8202198,155.932132 Z"/><path fill="#EBEBEB" d="M90.0177582,236.54189 L57.957978,236.54189 L62.4323516,286.687648 L127.853011,304.848879 L128,304.808088 L128,271.580132 L127.860044,271.617407 L92.2915165,262.013187 L90.0177582,236.54189 Z"/><path fill="#FFF" d="M127.889582,220.572835 L167.216527,220.572835 L163.509451,261.992791 L127.889582,271.606857 L127.889582,304.833407 L193.362286,286.687648 L193.842637,281.291956 L201.347516,197.212132 L202.126769,188.636132 L127.889582,188.636132 L127.889582,220.572835 Z"/><path fill="#FFF" d="M127.889582,155.854066 L127.889582,155.932132 L205.032791,155.932132 L205.673495,148.753582 L207.128615,132.562989 L207.892396,123.994725 L127.889582,123.994725 L127.889582,155.854066 Z"/></g><g class="floating"><g fill="url(#textGradient)"><path d="M24.1807473,0 L40.4107253,0 L40.4107253,16.0351648 L55.2573187,16.0351648 L55.2573187,0 L71.488,0 L71.488,48.5584176 L55.258022,48.5584176 L55.258022,32.2981978 L40.4114286,32.2981978 L40.4114286,48.5584176 L24.1814505,48.5584176 L24.1814505,0 L24.1807473,0 Z"/><path d="M92.8309451,16.1026813 L78.5427692,16.1026813 L78.5427692,0 L123.356835,0 L123.356835,16.1026813 L109.06233,16.1026813 L109.06233,48.5584176 L92.8316484,48.5584176 L92.8316484,16.1026813 L92.8309451,16.1026813 Z"/><path d="M130.469275,0 L147.392703,0 L157.802901,17.061978 L168.202549,0 L185.132308,0 L185.132308,48.5584176 L168.969143,48.5584176 L168.969143,24.4901978 L157.802901,41.7554286 L157.523692,41.7554286 L146.349714,24.4901978 L146.349714,48.5584176 L130.469275,48.5584176 L130.469275,0 Z"/><path d="M193.20967,0 L209.444571,0 L209.444571,32.5077802 L232.268659,32.5077802 L232.268659,48.5584176 L193.20967,48.5584176 L193.20967,0 Z"/></g><g class="flash" clip-path="url(#htmlTextClip)"><rect width="240" height="48.6" x="0" y="0" fill="#fff" opacity=".1"/></g></g><g mask="url(#shieldMask)"><g class="rotating"><circle cx="127" cy="220" r="60" fill="none" stroke="gold" stroke-width="1" opacity=".5"/><circle cx="127" cy="220" r="90" fill="none" stroke="gold" stroke-width=".7" opacity=".4"/><circle cx="127" cy="220" r="120" fill="none" stroke="gold" stroke-width=".5" opacity=".3"/></g><g class="rotating-reverse"><circle cx="127" cy="220" r="70" fill="none" stroke="#FF8A00" stroke-width=".8" opacity=".4"/><circle cx="127" cy="220" r="110" fill="none" stroke="#FF8A00" stroke-width=".6" opacity=".3"/></g><circle cx="90" cy="280" r="2" fill="#FFC107" class="particle" style="--tx:20px;--ty:-60px"/><circle cx="160" cy="260" r="3" fill="#FFC107" class="particle" style="--tx:-40px;--ty:-40px;animation-delay:1s"/><circle cx="70" cy="200" r="2" fill="#FFC107" class="particle" style="--tx:30px;--ty:-50px;animation-delay:2s"/><circle cx="180" cy="220" r="2" fill="#FFC107" class="particle" style="--tx:-30px;--ty:-60px;animation-delay:.5s"/><circle cx="120" cy="300" r="3" fill="#FFC107" class="particle" style="--tx:20px;--ty:-80px;animation-delay:1.5s"/><circle cx="200" cy="180" r="2" fill="#FFC107" class="particle" style="--tx:-50px;--ty:-40px;animation-delay:2.5s"/><circle cx="100" cy="180" r="2" fill="#FFC107" class="particle" style="--tx:40px;--ty:-70px;animation-delay:.7s"/><circle cx="150" cy="290" r="3" fill="#FFC107" class="particle" style="--tx:-10px;--ty:-90px;animation-delay:1.7s"/></g><path fill="none" stroke="url(#metallicEdge)" stroke-width="2" d="M255.554813,70.7657143 L232.31367,331.125451 L127.843868,360.087912 L23.6617143,331.166242 L0.445186813,70.7657143 L255.554813,70.7657143 Z" class="tracing"/><g stroke="#FFF" stroke-opacity=".4" class="tracing"><path fill="none" stroke-width=".8" d="M128,337.950242 L212.416703,314.546637 L232.277802,92.0573187 L128,92.0573187"/><path fill="none" stroke-width=".5" d="M82.8202198,155.932132 L128,155.932132 L128,123.994725 L47.917011,123.994725 L48.6814945,132.562989 L56.530989,220.572835 L128,220.572835 L128,188.636132 L85.7389011,188.636132"/><path fill="none" stroke-width=".5" d="M90.0177582,236.54189 L57.957978,236.54189 L62.4323516,286.687648 L127.853011,304.848879 L128,304.808088 L128,271.580132"/><path fill="none" stroke-width=".5" d="M127.889582,155.932132 L205.032791,155.932132 L205.673495,148.753582 L207.128615,132.562989 L207.892396,123.994725 L127.889582,123.994725"/><path fill="none" stroke-width=".5" d="M127.889582,220.572835 L167.216527,220.572835 L163.509451,261.992791 L127.889582,271.606857 L127.889582,304.833407"/></g></svg>