<svg xmlns="http://www.w3.org/2000/svg" id="react-icon" width="300" height="300" viewBox="0 -14 256 256"><style>@keyframes draw-in{0%{stroke-dashoffset:1200;opacity:0}70%{opacity:.8}}@keyframes draw-out{0%{stroke-dashoffset:0;opacity:1}30%{opacity:.8}}#react-icon{position:absolute;top:50%;left:50%;transform:translate(-50%,-50%);display:block;margin:0 auto;overflow:visible}.react-container,.react-path{transform-origin:center;animation:rotate 20s linear infinite}.react-path{fill:none;stroke:#58c4dc;stroke-width:4;stroke-linecap:round;stroke-dasharray:1200;animation:draw-in 9.5s ease-out forwards,draw-out 5.5s ease-in 5.5s forwards,rotate 9s linear infinite;animation-iteration-count:infinite}</style><g class="react-container"><path d="M210.483,73.824c-2.656-0.914-5.408-1.779-8.241-2.597c0.466-1.901,0.893-3.777,1.273-5.621 c6.238-30.281,2.159-54.676-11.769-62.708c-13.355-7.699-35.196,0.33-57.254,19.527c-2.121,1.846-4.248,3.8-6.374,5.848 c-1.417-1.355-2.831-2.665-4.242-3.918C100.759,3.829,77.587-4.822,63.673,3.233c-13.342,7.724-17.293,30.657-11.678,59.355 c0.542,2.772,1.176,5.603,1.893,8.481c-3.279,0.931-6.445,1.923-9.475,2.979c-27.103,9.449-44.412,24.259-44.412,39.62 c0,15.865,18.582,31.778,46.812,41.427c2.228,0.761,4.539,1.481,6.922,2.165c-0.773,3.113-1.446,6.163-2.01,9.138 c-5.354,28.199-1.173,50.591,12.134,58.266c13.744,7.926,36.812-0.221,59.273-19.855c1.775-1.552,3.557-3.198,5.342-4.923 c2.313,2.228,4.623,4.336,6.921,6.314c21.757,18.722,43.245,26.282,56.539,18.586c13.731-7.949,18.193-32.003,12.4-61.268 c-0.442-2.235-0.957-4.518-1.535-6.842c1.62-0.479,3.21-0.973,4.761-1.487c29.348-9.724,48.442-25.443,48.442-41.52 C256,98.251,238.132,83.342,210.483,73.824z M204.118,144.808c-1.4,0.463-2.836,0.911-4.3,1.345 c-3.24-10.257-7.613-21.163-12.964-32.432c5.106-11,9.31-21.767,12.459-31.957c2.619,0.758,5.161,1.557,7.61,2.401 c23.69,8.155,38.14,20.213,38.14,29.504C245.064,123.564,229.458,136.411,204.118,144.808z M193.604,165.642 c2.562,12.941,2.928,24.641,1.231,33.787c-1.525,8.219-4.591,13.698-8.382,15.893c-8.068,4.67-25.32-1.4-43.927-17.412 c-2.133-1.835-4.281-3.795-6.437-5.869c7.213-7.889,14.422-17.061,21.458-27.247c12.376-1.098,24.068-2.893,34.671-5.344 C192.74,161.556,193.204,163.622,193.604,165.642z M87.276,214.515c-7.882,2.784-14.16,2.863-17.955,0.675 c-8.075-4.657-11.432-22.636-6.853-46.752c0.524-2.762,1.149-5.599,1.868-8.499c10.487,2.319,22.094,3.988,34.499,4.993 c7.083,9.967,14.501,19.128,21.976,27.15c-1.633,1.577-3.26,3.078-4.877,4.492C106.001,205.257,96.048,211.417,87.276,214.515z M50.349,144.747c-12.483-4.266-22.792-9.811-29.858-15.862c-6.349-5.438-9.555-10.836-9.555-15.217 c0-9.322,13.898-21.212,37.077-29.293c2.812-0.981,5.756-1.905,8.811-2.773c3.203,10.42,7.406,21.315,12.477,32.332 c-5.137,11.18-9.399,22.249-12.634,32.791C54.489,146.099,52.379,145.44,50.349,144.747z M62.727,60.488 c-4.811-24.587-1.616-43.135,6.424-47.789c8.564-4.958,27.503,2.111,47.463,19.835c1.276,1.133,2.557,2.319,3.841,3.545 c-7.438,7.987-14.787,17.079-21.808,26.987c-12.04,1.116-23.565,2.909-34.161,5.309C63.821,65.695,63.231,63.062,62.727,60.488z M173.154,87.755c-2.533-4.375-5.133-8.647-7.784-12.803c8.168,1.032,15.994,2.403,23.343,4.08 c-2.206,7.071-4.956,14.465-8.193,22.044c-2.322-4.409-4.778-8.854-7.365-13.322C173.154,87.755,173.154,87.755,173.154,87.755z M128.122,43.894c5.044,5.465,10.096,11.566,15.065,18.186c-5.007-0.236-10.076-0.359-15.187-0.359 c-5.063,0-10.094,0.12-15.07,0.353C117.904,55.515,122.999,49.422,128.122,43.894z M82.802,87.831 c-2.53,4.388-4.941,8.809-7.227,13.238c-3.185-7.553-5.909-14.98-8.135-22.151c7.304-1.635,15.093-2.971,23.209-3.984 C85.961,79.127,85.339,83.43,82.802,87.831z M90.883,153.183c-8.385-0.935-16.291-2.203-23.593-3.792 c2.261-7.299,5.046-14.885,8.298-22.601c2.292,4.426,4.712,8.849,7.258,13.246c2.593,4.48,5.28,8.868,8.038,13.147 C90.883,153.183,90.883,153.183,90.883,153.183z M128.425,184.213c-5.183-5.593-10.353-11.779-15.403-18.433 c4.902,0.192,9.899,0.291,14.978,0.291c5.218,0,10.376-0.118,15.453-0.344C133.435,178.697,128.425,184.213,128.425,184.213z M180.623,126.396c3.422,7.799,6.306,15.345,8.596,22.52c-7.423,1.693-15.437,3.057-23.88,4.07 c2.657-4.211,5.28-8.557,7.858-14.026c2.608-4.522,5.084-9.051,7.426-13.564C180.623,126.396,180.623,126.396,180.623,126.396z M163.725,134.497c-4.002,6.939-8.11,13.562-12.281,19.815c-6.597,0.543-14.445,0.823-22.444,0.823 c-7.967,0-15.716-0.247-23.178-0.732c-4.339-6.334-8.537-12.978-12.513-19.846c-3.966-6.85-7.616-13.757-10.923-20.626 c3.306-6.885,6.947-13.8,10.89-20.638c3.953-6.856,8.114-13.467,12.413-19.761c7.613-0.576,15.42-0.876,23.31-0.876 c7.926,0,15.743,0.303,23.354,0.883c4.233,6.249,8.366,12.838,12.335,19.695c4.014,6.933,6.701,13.802,10.036,20.54 C171.4,120.628,167.721,127.567,163.725,134.497z M186.285,12.373c8.573,4.944,11.906,24.882,6.52,51.026 c-0.344,1.668-0.731,3.367-1.151,5.089c-10.621-2.451-22.154-4.274-34.229-5.407c-7.034-10.018-14.323-19.124-21.64-27.008 c1.967-1.892,3.931-3.697,5.888-5.4C160.572,14.226,178.237,7.732,186.285,12.373z M128,90.808 c12.625,0,22.86,10.234,22.86,22.86c0,12.625-10.235,22.86-22.86,22.86c-12.625,0-22.86-10.235-22.86-22.86 C105.14,101.043,115.375,90.808,128,90.808z" class="react-path"/></g></svg>